<svg id="Capa_1" data-name="Capa 1" xmlns="http://www.w3.org/2000/svg" viewBox="0 0 1755.3 478.4"><defs><style>.cls-1{fill:#fff;}.cls-2{fill:#f39134;}.cls-3{font-size:182.56px;fill:#f39337;font-family:UTM-Avo, UTM Avo;}</style></defs><title>walk</title><rect class="cls-1" width="1755.3" height="478.4" rx="239.2" ry="239.2"/><path class="cls-2" d="M439,277.33c-.32-.11-.64-.2-1-.28l-50-12.52-41.39-31A65.84,65.84,0,1,0,250.82,224h-.34a13.17,13.17,0,0,0-9.31,3.86L149,320a13.17,13.17,0,0,0,0,18.62L175.33,365a13.17,13.17,0,0,0,17.54,1l44.44-35.55v23.7l-11.53,46.17L190.5,423.72A13.17,13.17,0,0,0,186.85,442h0l26.34,39.5a13.17,13.17,0,0,0,17.74,4l65.84-39.5a13.17,13.17,0,0,0,5.71-7.12l4.65-14,37.74,56.62a13.17,13.17,0,0,0,16.84,4.48l52.67-26.34a13.17,13.17,0,0,0,5.9-17.66h0l-39.5-79a13.69,13.69,0,0,0-.83-1.42l-19.34-29,58.89,9.81a12.34,12.34,0,0,0,2.17.15,13.17,13.17,0,0,0,12.5-9L447.33,294A13.17,13.17,0,0,0,439,277.33ZM303.15,145a39.5,39.5,0,1,1-39.5,39.5A39.5,39.5,0,0,1,303.15,145ZM279,425.89,228.1,456.43,216,438.32l28.55-19a13.17,13.17,0,0,0,5.46-7.77l8.36-33.42L287.62,400Zm111.8,16.05-30.5,15.25-46.22-69.34a11.68,11.68,0,0,0-1.42-1.49,10.84,10.84,0,0,0-1.32-1.32c-.15-.12-.24-.29-.38-.41l-47.3-35.55V303a13.17,13.17,0,0,0-21.4-10.28L185.63,338l-8.7-8.69,79-79h62.14l11.55,80.88a13.17,13.17,0,0,0,2.08,5.44l25.87,38.78Zm21.9-127.46-60.28-10L347,266.76l27.24,20.44a13.17,13.17,0,0,0,4.7,2.24l38.88,9.72Z" transform="translate(-63.58 -63.58)"/><text class="cls-3" transform="translate(471.25 306.18)">About <tspan x="602.4" y="0">9.07</tspan><tspan x="956.19" y="0">km</tspan></text></svg>